<?xml version="1.0" encoding="us-ascii" standalone="no"?><svg xmlns="http://www.w3.org/2000/svg" xmlns:xlink="http://www.w3.org/1999/xlink" contentStyleType="text/css" height="765px" preserveAspectRatio="none" style="width:1100px;height:765px;background:#FFFFFF;" version="1.1" viewBox="0 0 1100 765" width="1100px" zoomAndPan="magnify"><defs/><g><!--cluster common--><g id="cluster_common"><rect fill="#FFFFFF" height="327.5" rx="2.5" ry="2.5" style="stroke:#135056;stroke-width:1.0;" width="924" x="7" y="7"/><text fill="#000000" font-family="arial" font-size="14" font-weight="bold" lengthAdjust="spacing" textLength="151" x="393.5" y="21.6738">non-protocol-specific</text></g><!--cluster sip_voip--><g id="cluster_sip_voip"><rect fill="#FFFFFF" height="376" rx="2.5" ry="2.5" style="stroke:#135056;stroke-width:1.0;" width="651" x="318" y="383"/><text fill="#000000" font-family="arial" font-size="14" font-weight="bold" lengthAdjust="spacing" textLength="82" x="602.5" y="397.6738">SIP-specific</text></g><g id="elem_c1"><path d="M401.5,59 L401.5,112.5703 A0,0 0 0 0 401.5,112.5703 L537.16,112.5703 L534.86,202.76 L545.16,112.5703 L684.5,112.5703 A0,0 0 0 0 684.5,112.5703 L684.5,69 L674.5,59 L401.5,59 A0,0 0 0 0 401.5,59 " fill="#E6EBEF" style="stroke:#135056;stroke-width:0.5;"/><path d="M674.5,59 L674.5,69 L684.5,69 L674.5,59 " fill="#E6EBEF" style="stroke:#135056;stroke-width:0.5;"/><text fill="#000000" font-family="arial" font-size="13" font-weight="bold" lengthAdjust="spacing" textLength="262" x="407.5" y="75.7686">VoIP voice Connection Termination Point</text><text fill="#000000" font-family="arial" font-size="13" lengthAdjust="spacing" textLength="238" x="407.5" y="90.292">Links the phyiscal path termination point,</text><text fill="#000000" font-family="arial" font-size="13" lengthAdjust="spacing" textLength="246" x="407.5" y="104.8154">a POTS UNI, to the VoIP service, here SIP</text></g><!--class ctp--><g id="elem_ctp"><rect codeLine="11" fill="#FFFFFF" height="25.6406" id="ctp" rx="2.5" ry="2.5" style="stroke:#FF0000;stroke-width:1.0;" width="104" x="482" y="203"/><text fill="#000000" font-family="arial" font-size="14" lengthAdjust="spacing" textLength="98" x="485" y="220.6738">VoIP voice CTP</text></g><g id="elem_GMN5"><path d="M621.5,203.5 L621.5,212 L586.11,216 L621.5,220 L621.5,228.0234 A0,0 0 0 0 621.5,228.0234 L678.5,228.0234 A0,0 0 0 0 678.5,228.0234 L678.5,213.5 L668.5,203.5 L621.5,203.5 A0,0 0 0 0 621.5,203.5 " fill="#E6EBEF" style="stroke:#135056;stroke-width:0.5;"/><path d="M668.5,203.5 L668.5,213.5 L678.5,213.5 L668.5,203.5 " fill="#E6EBEF" style="stroke:#135056;stroke-width:0.5;"/><text fill="#000000" font-family="arial" font-size="13" lengthAdjust="spacing" textLength="36" x="627.5" y="220.2686">&#167;9.9.4</text></g><!--class voip_media--><g id="elem_voip_media"><rect codeLine="15" fill="#FFFFFF" height="25.6406" id="voip_media" rx="2.5" ry="2.5" style="stroke:#FFA500;stroke-width:1.0;" width="120" x="293" y="203"/><text fill="#000000" font-family="arial" font-size="14" lengthAdjust="spacing" textLength="114" x="296" y="220.6738">VoIP media profile</text></g><g id="elem_GMN10"><path d="M309.5,73.5 L309.5,98.0234 A0,0 0 0 0 309.5,98.0234 L335.38,98.0234 L351.58,202.84 L343.38,98.0234 L366.5,98.0234 A0,0 0 0 0 366.5,98.0234 L366.5,83.5 L356.5,73.5 L309.5,73.5 A0,0 0 0 0 309.5,73.5 " fill="#E6EBEF" style="stroke:#135056;stroke-width:0.5;"/><path d="M356.5,73.5 L356.5,83.5 L366.5,83.5 L356.5,73.5 " fill="#E6EBEF" style="stroke:#135056;stroke-width:0.5;"/><text fill="#000000" font-family="arial" font-size="13" lengthAdjust="spacing" textLength="36" x="315.5" y="90.2686">&#167;9.9.5</text></g><!--class rtp--><g id="elem_rtp"><rect codeLine="18" fill="#FFFFFF" height="25.6406" id="rtp" rx="2.5" ry="2.5" style="stroke:#FFA500;stroke-width:1.0;" width="109" x="115.5" y="203"/><text fill="#000000" font-family="arial" font-size="14" lengthAdjust="spacing" textLength="103" x="118.5" y="220.6738">RTP profile data</text></g><g id="elem_GMN14"><path d="M141.5,73.5 L141.5,98.0234 A0,0 0 0 0 141.5,98.0234 L166,98.0234 L170,202.84 L174,98.0234 L198.5,98.0234 A0,0 0 0 0 198.5,98.0234 L198.5,83.5 L188.5,73.5 L141.5,73.5 A0,0 0 0 0 141.5,73.5 " fill="#E6EBEF" style="stroke:#135056;stroke-width:0.5;"/><path d="M188.5,73.5 L188.5,83.5 L198.5,83.5 L188.5,73.5 " fill="#E6EBEF" style="stroke:#135056;stroke-width:0.5;"/><text fill="#000000" font-family="arial" font-size="13" lengthAdjust="spacing" textLength="36" x="147.5" y="90.2686">&#167;9.9.7</text></g><!--class vsp--><g id="elem_vsp"><rect codeLine="20" fill="#FFFFFF" height="25.6406" id="vsp" rx="2.5" ry="2.5" style="stroke:#A52A2A;stroke-width:1.0;" width="133" x="89.5" y="292.5"/><text fill="#000000" font-family="arial" font-size="14" lengthAdjust="spacing" textLength="127" x="92.5" y="310.1738">Voice service profile</text></g><g id="elem_GMN18"><path d="M23.5,203.5 L23.5,228.0234 A0,0 0 0 0 23.5,228.0234 L62.03,228.0234 L141.53,292.32 L70.03,228.0234 L80.5,228.0234 A0,0 0 0 0 80.5,228.0234 L80.5,213.5 L70.5,203.5 L23.5,203.5 A0,0 0 0 0 23.5,203.5 " fill="#E6EBEF" style="stroke:#135056;stroke-width:0.5;"/><path d="M70.5,203.5 L70.5,213.5 L80.5,213.5 L70.5,203.5 " fill="#E6EBEF" style="stroke:#135056;stroke-width:0.5;"/><text fill="#000000" font-family="arial" font-size="13" lengthAdjust="spacing" textLength="36" x="29.5" y="220.2686">&#167;9.9.6</text></g><!--class pots--><g id="elem_pots"><rect codeLine="23" fill="#FFFFFF" height="25.6406" id="pots" rx="2.5" ry="2.5" style="stroke:#0000FF;stroke-width:1.0;" width="109" x="805.5" y="203"/><text fill="#000000" font-family="arial" font-size="14" lengthAdjust="spacing" textLength="103" x="808.5" y="220.6738">PPTP POTS UNI</text></g><g id="elem_GMN22"><path d="M713.5,203.5 L713.5,228.0234 A0,0 0 0 0 713.5,228.0234 L770.5,228.0234 A0,0 0 0 0 770.5,228.0234 L770.5,221.5 L805.16,216 L770.5,213.5 L770.5,213.5 L760.5,203.5 L713.5,203.5 A0,0 0 0 0 713.5,203.5 " fill="#E6EBEF" style="stroke:#135056;stroke-width:0.5;"/><path d="M760.5,203.5 L760.5,213.5 L770.5,213.5 L760.5,203.5 " fill="#E6EBEF" style="stroke:#135056;stroke-width:0.5;"/><text fill="#000000" font-family="arial" font-size="13" lengthAdjust="spacing" textLength="36" x="719.5" y="220.2686">&#167;9.9.1</text></g><!--class sip_ud--><g id="elem_sip_ud"><rect codeLine="35" fill="#FFFFFF" height="25.6406" id="sip_ud" rx="2.5" ry="2.5" style="stroke:#FF0000;stroke-width:1.0;" width="91" x="689.5" y="442.5"/><text fill="#000000" font-family="arial" font-size="14" lengthAdjust="spacing" textLength="85" x="692.5" y="460.1738">SIP user data</text></g><g id="elem_GMN33"><path d="M815.5,443 L815.5,451.5 L780.56,455.5 L815.5,459.5 L815.5,467.5234 A0,0 0 0 0 815.5,467.5234 L872.5,467.5234 A0,0 0 0 0 872.5,467.5234 L872.5,453 L862.5,443 L815.5,443 A0,0 0 0 0 815.5,443 " fill="#E6EBEF" style="stroke:#135056;stroke-width:0.5;"/><path d="M862.5,443 L862.5,453 L872.5,453 L862.5,443 " fill="#E6EBEF" style="stroke:#135056;stroke-width:0.5;"/><text fill="#000000" font-family="arial" font-size="13" lengthAdjust="spacing" textLength="36" x="821.5" y="459.7686">&#167;9.9.2</text></g><!--class sip_agent--><g id="elem_sip_agent"><rect codeLine="38" fill="#FFFFFF" height="41.2813" id="sip_agent" rx="2.5" ry="2.5" style="stroke:#00C749;stroke-width:1.0;" width="76" x="479" y="686"/><text fill="#000000" font-family="arial" font-size="14" lengthAdjust="spacing" textLength="61" x="484.5" y="703.6738">SIP agent</text><text fill="#000000" font-family="arial" font-size="14" lengthAdjust="spacing" textLength="70" x="482" y="719.3145">config data</text></g><g id="elem_GMN37"><path d="M590.5,694 L590.5,702.5 L555.25,706.5 L590.5,710.5 L590.5,718.5234 A0,0 0 0 0 590.5,718.5234 L647.5,718.5234 A0,0 0 0 0 647.5,718.5234 L647.5,704 L637.5,694 L590.5,694 A0,0 0 0 0 590.5,694 " fill="#E6EBEF" style="stroke:#135056;stroke-width:0.5;"/><path d="M637.5,694 L637.5,704 L647.5,704 L637.5,694 " fill="#E6EBEF" style="stroke:#135056;stroke-width:0.5;"/><text fill="#000000" font-family="arial" font-size="13" lengthAdjust="spacing" textLength="36" x="596.5" y="710.7686">&#167;9.9.3</text></g><!--class dial--><g id="elem_dial"><rect codeLine="41" fill="#FFFFFF" height="41.2813" id="dial" rx="2.5" ry="2.5" style="stroke:#00C749;stroke-width:1.0;" width="82" x="539" y="435"/><text fill="#000000" font-family="arial" font-size="14" lengthAdjust="spacing" textLength="76" x="542" y="452.6738">Network dial</text><text fill="#000000" font-family="arial" font-size="14" lengthAdjust="spacing" textLength="62" x="549" y="468.3145">plan table</text></g><g id="elem_GMN41"><path d="M548,568 L548,592.5234 A0,0 0 0 0 548,592.5234 L612,592.5234 A0,0 0 0 0 612,592.5234 L612,578 L602,568 L584,568 L580,476.26 L576,568 L548,568 A0,0 0 0 0 548,568 " fill="#E6EBEF" style="stroke:#135056;stroke-width:0.5;"/><path d="M602,568 L602,578 L612,578 L602,568 " fill="#E6EBEF" style="stroke:#135056;stroke-width:0.5;"/><text fill="#000000" font-family="arial" font-size="13" lengthAdjust="spacing" textLength="43" x="554" y="584.7686">&#167;9.9.10</text></g><!--class access--><g id="elem_access"><rect codeLine="43" fill="#FFFFFF" height="41.2813" id="access" rx="2.5" ry="2.5" style="stroke:#00C749;stroke-width:1.0;" width="92" x="412" y="435"/><text fill="#000000" font-family="arial" font-size="14" lengthAdjust="spacing" textLength="78" x="419" y="452.6738">VoIP feature</text><text fill="#000000" font-family="arial" font-size="14" lengthAdjust="spacing" textLength="86" x="415" y="468.3145">access codes</text></g><g id="elem_GMN45"><path d="M431.5,568 L431.5,592.5234 A0,0 0 0 0 431.5,592.5234 L488.5,592.5234 A0,0 0 0 0 488.5,592.5234 L488.5,578 L478.5,568 L463.81,568 L458.32,476.26 L455.81,568 L431.5,568 A0,0 0 0 0 431.5,568 " fill="#E6EBEF" style="stroke:#135056;stroke-width:0.5;"/><path d="M478.5,568 L478.5,578 L488.5,578 L478.5,568 " fill="#E6EBEF" style="stroke:#135056;stroke-width:0.5;"/><text fill="#000000" font-family="arial" font-size="13" lengthAdjust="spacing" textLength="36" x="437.5" y="584.7686">&#167;9.9.9</text></g><!--class auth--><g id="elem_auth"><rect codeLine="45" fill="#FFFFFF" height="56.9219" id="auth" rx="2.5" ry="2.5" style="stroke:#FF0000;stroke-width:1.0;" width="95" x="826.5" y="552"/><text fill="#000000" font-family="arial" font-size="14" lengthAdjust="spacing" textLength="89" x="829.5" y="569.6738">authentication</text><text fill="#000000" font-family="arial" font-size="14" lengthAdjust="spacing" textLength="49" x="849.5" y="585.3145">security</text><text fill="#000000" font-family="arial" font-size="14" lengthAdjust="spacing" textLength="47" x="850.5" y="600.9551">method</text></g><g id="elem_GMN49"><path d="M889,694 L889,718.5234 A0,0 0 0 0 889,718.5234 L953,718.5234 A0,0 0 0 0 953,718.5234 L953,704 L943,694 L920.55,694 L884.43,609.02 L912.55,694 L889,694 A0,0 0 0 0 889,694 " fill="#E6EBEF" style="stroke:#135056;stroke-width:0.5;"/><path d="M943,694 L943,704 L953,704 L943,694 " fill="#E6EBEF" style="stroke:#135056;stroke-width:0.5;"/><text fill="#000000" font-family="arial" font-size="13" lengthAdjust="spacing" textLength="43" x="895" y="710.7686">&#167;9.12.4</text></g><!--class voip_appl--><g id="elem_voip_appl"><rect codeLine="48" fill="#FFFFFF" height="72.5625" id="voip_appl" rx="2.5" ry="2.5" style="stroke:#00C749;stroke-width:1.0;" width="78" x="683" y="670"/><text fill="#000000" font-family="arial" font-size="14" lengthAdjust="spacing" textLength="29" x="705.5" y="687.6738">VoIP</text><text fill="#000000" font-family="arial" font-size="14" lengthAdjust="spacing" textLength="68" x="686" y="703.3145">application</text><text fill="#000000" font-family="arial" font-size="14" lengthAdjust="spacing" textLength="45" x="697.5" y="718.9551">service</text><text fill="#000000" font-family="arial" font-size="14" lengthAdjust="spacing" textLength="39" x="702.5" y="734.5957">profile</text></g><g id="elem_GMN53"><path d="M796.5,694 L796.5,702.5 L761.03,706.5 L796.5,710.5 L796.5,718.5234 A0,0 0 0 0 796.5,718.5234 L853.5,718.5234 A0,0 0 0 0 853.5,718.5234 L853.5,704 L843.5,694 L796.5,694 A0,0 0 0 0 796.5,694 " fill="#E6EBEF" style="stroke:#135056;stroke-width:0.5;"/><path d="M843.5,694 L843.5,704 L853.5,704 L843.5,694 " fill="#E6EBEF" style="stroke:#135056;stroke-width:0.5;"/><text fill="#000000" font-family="arial" font-size="13" lengthAdjust="spacing" textLength="36" x="802.5" y="710.7686">&#167;9.9.8</text></g><!--class transport--><g id="elem_transport"><rect codeLine="52" fill="#FFFFFF" height="41.2813" id="transport" rx="2.5" ry="2.5" style="stroke:#00C749;stroke-width:1.0;" width="76" x="334" y="686"/><text fill="#000000" font-family="arial" font-size="14" lengthAdjust="spacing" textLength="60" x="340" y="703.6738">TCP/UDP</text><text fill="#000000" font-family="arial" font-size="14" lengthAdjust="spacing" textLength="70" x="337" y="719.3145">config data</text></g><g id="elem_GMN66"><path d="M339.5,568 L339.5,592.5234 A0,0 0 0 0 339.5,592.5234 L364.38,592.5234 L371.36,685.75 L372.38,592.5234 L396.5,592.5234 A0,0 0 0 0 396.5,592.5234 L396.5,578 L386.5,568 L339.5,568 A0,0 0 0 0 339.5,568 " fill="#E6EBEF" style="stroke:#135056;stroke-width:0.5;"/><path d="M386.5,568 L386.5,578 L396.5,578 L386.5,568 " fill="#E6EBEF" style="stroke:#135056;stroke-width:0.5;"/><text fill="#000000" font-family="arial" font-size="13" lengthAdjust="spacing" textLength="36" x="345.5" y="584.7686">&#167;9.4.3</text></g><g id="elem_N1"><path d="M947,30 L947,141.6641 L1093,141.6641 L1093,40 L1083,30 L947,30 " fill="#E6EBEF" style="stroke:#135056;stroke-width:0.5;"/><path d="M1083,30 L1083,40 L1093,40 L1083,30 " fill="#E6EBEF" style="stroke:#135056;stroke-width:1.0;"/><text fill="#000000" font-family="arial" font-size="13" lengthAdjust="spacing" textLength="42" x="953" y="46.7686">Legend</text><text fill="#000000" font-family="arial" font-size="13" lengthAdjust="spacing" textLength="4" x="953" y="61.292">&#160;</text><text fill="#FF0000" font-family="arial" font-size="13" lengthAdjust="spacing" textLength="21" x="957" y="75.8154">___</text><text fill="#000000" font-family="arial" font-size="13" lengthAdjust="spacing" textLength="81" x="982" y="75.8154">: user-specific</text><text fill="#FFA500" font-family="arial" font-size="13" lengthAdjust="spacing" textLength="21" x="957" y="90.3389">___</text><text fill="#000000" font-family="arial" font-size="13" lengthAdjust="spacing" textLength="91" x="982" y="90.3389">: media-specific</text><text fill="#0000FF" font-family="arial" font-size="13" lengthAdjust="spacing" textLength="21" x="957" y="104.8623">___</text><text fill="#000000" font-family="arial" font-size="13" lengthAdjust="spacing" textLength="91" x="982" y="104.8623">: POTS-specific</text><text fill="#A52A2A" font-family="arial" font-size="13" lengthAdjust="spacing" textLength="21" x="957" y="119.3857">___</text><text fill="#000000" font-family="arial" font-size="13" lengthAdjust="spacing" textLength="92" x="982" y="119.3857">: device-specific</text><text fill="#008000" font-family="arial" font-size="13" lengthAdjust="spacing" textLength="21" x="957" y="133.9092">___</text><text fill="#000000" font-family="arial" font-size="13" lengthAdjust="spacing" textLength="96" x="982" y="133.9092">: service-specific</text></g><!--link ctp to pots--><g id="link_ctp_pots"><path codeLine="27" d="M553.84,202.79 C570.94,192.25 596.73,178.32 621.5,172.5 C685.97,157.36 705.96,157.65 770.5,172.5 C795.75,178.31 816.9987,189.157 834.5187,199.697 " fill="none" id="ctp-to-pots" style="stroke:#0000FF;stroke-width:1.0;"/><polygon fill="#0000FF" points="839.66,202.79,834.01,194.7229,835.3756,200.2125,829.886,201.578,839.66,202.79" style="stroke:#0000FF;stroke-width:1.0;"/><text fill="#000000" font-family="arial" font-size="13" lengthAdjust="spacing" textLength="22" x="535.4865" y="192.404">0..1</text><text fill="#000000" font-family="arial" font-size="13" lengthAdjust="spacing" textLength="7" x="822.826" y="192.404">1</text></g><!--reverse link voip_media to ctp--><g id="link_voip_media_ctp"><path codeLine="28" d="M419.02,216 C441.25,216 460.25,216 481.73,216 " fill="none" id="voip_media-backto-ctp" style="stroke:#FFA500;stroke-width:1.0;"/><polygon fill="#FFA500" points="413.02,216,422.02,220,418.02,216,422.02,212,413.02,216" style="stroke:#FFA500;stroke-width:1.0;"/><text fill="#000000" font-family="arial" font-size="13" lengthAdjust="spacing" textLength="7" x="421.1585" y="212.9282">1</text><text fill="#000000" font-family="arial" font-size="13" lengthAdjust="spacing" textLength="20" x="454.1408" y="228.6755">0..*</text></g><!--reverse link rtp to voip_media--><g id="link_rtp_voip_media"><path codeLine="30" d="M230.91,216 C252.28,216 270.84,216 292.7,216 " fill="none" id="rtp-backto-voip_media" style="stroke:#FFA500;stroke-width:1.0;"/><polygon fill="#FFA500" points="224.91,216,233.91,220,229.91,216,233.91,212,224.91,216" style="stroke:#FFA500;stroke-width:1.0;"/><text fill="#000000" font-family="arial" font-size="13" lengthAdjust="spacing" textLength="7" x="232.3938" y="212.9282">1</text><text fill="#000000" font-family="arial" font-size="13" lengthAdjust="spacing" textLength="20" x="265.0109" y="228.5825">0..*</text></g><!--link voip_media to vsp--><g id="link_voip_media_vsp"><path codeLine="31" d="M325.61,229.17 C287.97,245.88 226.1529,273.3333 188.6429,290.0033 " fill="none" id="voip_media-to-vsp" style="stroke:#A52A2A;stroke-width:1.0;"/><polygon fill="#A52A2A" points="183.16,292.44,193.0089,292.4402,187.7291,290.4094,189.7599,285.1297,183.16,292.44" style="stroke:#A52A2A;stroke-width:1.0;"/><text fill="#000000" font-family="arial" font-size="13" lengthAdjust="spacing" textLength="20" x="292.2898" y="248.2814">0..*</text><text fill="#000000" font-family="arial" font-size="13" lengthAdjust="spacing" textLength="7" x="186.5113" y="281.6254">1</text></g><!--link sip_ud to sip_agent--><g id="link_sip_ud_sip_agent"><path codeLine="54" d="M728.07,468.75 C712.52,495.69 672.82,561.48 630,609 C603.4,638.51 572.6799,663.8002 548.6199,682.1602 " fill="none" id="sip_ud-to-sip_agent" style="stroke:#00C749;stroke-width:1.0;"/><polygon fill="#00C749" points="543.85,685.8,553.4313,683.5201,547.8249,682.7668,548.5782,677.1603,543.85,685.8" style="stroke:#00C749;stroke-width:1.0;"/><text fill="#000000" font-family="arial" font-size="13" lengthAdjust="spacing" textLength="20" x="702.0387" y="487.8899">0..*</text><text fill="#000000" font-family="arial" font-size="13" lengthAdjust="spacing" textLength="7" x="544.0009" y="675.1225">1</text></g><!--reverse link dial to sip_ud--><g id="link_dial_sip_ud"><path codeLine="56" d="M627.13,455.5 C648.12,455.5 667.71,455.5 689.31,455.5 " fill="none" id="dial-backto-sip_ud" style="stroke:#00C749;stroke-width:1.0;"/><polygon fill="#00C749" points="621.13,455.5,630.13,459.5,626.13,455.5,630.13,451.5,621.13,455.5" style="stroke:#00C749;stroke-width:1.0;"/><text fill="#000000" font-family="arial" font-size="13" lengthAdjust="spacing" textLength="7" x="629.0797" y="452.0432">1</text><text fill="#000000" font-family="arial" font-size="13" lengthAdjust="spacing" textLength="20" x="661.4786" y="468.315">0..*</text></g><!--reverse link access to sip_ud--><g id="link_access_sip_ud"><path codeLine="57" d="M471.0287,429.4222 C481.5487,410.4422 497.06,388.84 522,377 C568.97,354.69 590.02,359.53 639,377 C675.5,390.02 708.13,423.54 724.29,442.3 " fill="none" id="access-backto-sip_ud" style="stroke:#00C749;stroke-width:1.0;"/><polygon fill="#00C749" points="468.12,434.67,475.9816,428.7374,470.5439,430.2968,468.9845,424.8592,468.12,434.67" style="stroke:#00C749;stroke-width:1.0;"/><text fill="#000000" font-family="arial" font-size="13" lengthAdjust="spacing" textLength="7" x="463.0646" y="424.2991">1</text><text fill="#000000" font-family="arial" font-size="13" lengthAdjust="spacing" textLength="20" x="695.7471" y="431.9181">0..*</text></g><!--link sip_ud to auth--><g id="link_sip_ud_auth"><path codeLine="58" d="M748.58,468.52 C770.24,487.68 808.6567,521.6837 838.2067,547.8337 " fill="none" id="sip_ud-to-auth" style="stroke:#FF0000;stroke-width:1.0;"/><polygon fill="#FF0000" points="842.7,551.81,838.611,542.8501,838.9556,548.4964,833.3093,548.8411,842.7,551.81" style="stroke:#FF0000;stroke-width:1.0;"/><text fill="#000000" font-family="arial" font-size="13" lengthAdjust="spacing" textLength="7" x="754.8783" y="487.8337">1</text><text fill="#000000" font-family="arial" font-size="13" lengthAdjust="spacing" textLength="7" x="827.6525" y="541.3948">1</text></g><!--link sip_ud to voip_appl--><g id="link_sip_ud_voip_appl"><path codeLine="60" d="M734.37,468.51 C732.49,504.55 727.1528,606.7982 724.1828,663.6882 " fill="none" id="sip_ud-to-voip_appl" style="stroke:#00C749;stroke-width:1.0;"/><polygon fill="#00C749" points="723.87,669.68,728.3338,660.9008,724.1307,664.6868,720.3447,660.4837,723.87,669.68" style="stroke:#00C749;stroke-width:1.0;"/><text fill="#000000" font-family="arial" font-size="13" lengthAdjust="spacing" textLength="20" x="737.8252" y="487.82">0..*</text><text fill="#000000" font-family="arial" font-size="13" lengthAdjust="spacing" textLength="7" x="716.5593" y="659.187">1</text></g><!--reverse link transport to sip_agent--><g id="link_transport_sip_agent"><path codeLine="62" d="M416.1,706.5 C437.33,706.5 457.68,706.5 478.91,706.5 " fill="none" id="transport-backto-sip_agent" style="stroke:#00C749;stroke-width:1.0;"/><polygon fill="#00C749" points="410.1,706.5,419.1,710.5,415.1,706.5,419.1,702.5,410.1,706.5" style="stroke:#00C749;stroke-width:1.0;"/><text fill="#000000" font-family="arial" font-size="13" lengthAdjust="spacing" textLength="7" x="418.03" y="702.9573">1</text><text fill="#000000" font-family="arial" font-size="13" lengthAdjust="spacing" textLength="20" x="450.9451" y="719.448">0..*</text></g><!--link ctp to sip_ud--><g id="link_ctp_sip_ud"><path codeLine="75" d="M544.24,229.1 C578.72,269.85 686.4536,397.1403 720.9036,437.8403 " fill="none" id="ctp-to-sip_ud" style="stroke:#FF0000;stroke-width:1.0;"/><polygon fill="#FF0000" points="724.78,442.42,722.0185,432.9662,721.5497,438.6036,715.9123,438.1348,724.78,442.42" style="stroke:#FF0000;stroke-width:1.0;"/><text fill="#000000" font-family="arial" font-size="13" lengthAdjust="spacing" textLength="104" x="651" y="302.7686">signalling protocol</text><text fill="#000000" font-family="arial" font-size="13" lengthAdjust="spacing" textLength="4" x="640" y="317.292">(</text><text fill="#000000" font-family="arial" font-size="13" font-style="italic" lengthAdjust="spacing" textLength="122" x="644" y="317.292">user prototocl pointer</text><text fill="#000000" font-family="arial" font-size="13" lengthAdjust="spacing" textLength="4" x="766" y="317.292">)</text><text fill="#000000" font-family="arial" font-size="13" lengthAdjust="spacing" textLength="22" x="521.9598" y="248.4432">0..1</text><text fill="#000000" font-family="arial" font-size="13" lengthAdjust="spacing" textLength="7" x="721.84" y="431.5967">1</text></g><!--reverse link pots to sip_ud--><g id="link_pots_sip_ud"><path codeLine="76" d="M850.8363,234.4099 C829.3963,275.1599 762.78,401.72 741.36,442.42 " fill="none" id="pots-backto-sip_ud" style="stroke:#0000FF;stroke-width:1.0;"/><polygon fill="#0000FF" points="853.63,229.1,845.8995,235.2024,851.3019,233.5249,852.9793,238.9273,853.63,229.1" style="stroke:#0000FF;stroke-width:1.0;"/><text fill="#000000" font-family="arial" font-size="13" lengthAdjust="spacing" textLength="7" x="842.9904" y="248.4432">1</text><text fill="#000000" font-family="arial" font-size="13" lengthAdjust="spacing" textLength="22" x="748.955" y="431.5967">0..1</text></g><!--SRC=[XLNHZjCw47tFLmpb8L1jKxfmBztLgX9Q15e9bWWA4bAbbPjCMsiTExATHIi4lyD_t2-xOpj9qpIxl5IjUtncvfoPyHCkCr7b26LLY8dTOO49fwzH58FbLY2yJyxcS_ZqyV8A2YRP5dFuSfN2DqKVpzxnRQKHvibfCazUFezsdAWABDQeJHILBBkb2p2IIavAhQpAb9YO4ZE-uTa8c85C5OMIS77n6JFBv5RWOW4_8m2fB7h0Z7u0ZCS-u9tY6SAbafBWd2ukKHTSClyzLLpQyTZZFt1vQu3gWN9tpqt619JCxi1syAN3dtWuW_JJyWjylRuw0QlyFH_FeBwZY2UmGogJwYOqojndHrypmOo1KJUrPHhgiYKy5LpYkSQSaB6lnweIpgdcDlsLx2QqaZwbfdhDjpiBQkF9pk6_FsV9MVBAXPr1ahZJNWe5vfm12RtX0dqQb5Hv4uv3DagJoDX42Fa4ud-YFTldPThGGCuiyrowBUbXajVTZ9mUjO27IPc6QAtL3pd4ysydcJIbR1fxF46fh6aOHEKIYGE5m8qNp0FEdVM6E-j9M6V-eshxkqtycOzF1OzU9Cbi11FlnMG18_eHmjUH6z2OG8uYGBgw1xM8UcKTQ-UlutjUu-w5GNoTXzSnIFYhCspKfOSpPeZ0iGnCMIsn6-YAhDgRxUvK-K4BTtgoaUaqEkIW-DAIiDJX6xuzPFF_3TEyxD1Se_sXz2rGlO8S4ao2PUkwSznXGx5MrgfYxzYBtZ1ia5dQJIl9iWoDspGv6iyI3XxWETlJi8hsWBJKGQvVLj9WLcbkxrUoGBjJUI0ZqB5C1wIpKvhQNdQKLbcAcXeSTvWJAha_lWuuhDiywj0kBzFfrxVfWFgM-icKIllsgurjMwdkfRr3nnZNdZNC6T0qviEeMl4URhRlt20QwTLEnGDfjG8S04ER7KzFMsWJkjqhjMIlgDL-HStJSksUbWz8PBbZlg37IMdduW9kRcukflxtWgwwqMX7QeyCSze7-r4TGBjzqSUwhJO4TJFTn-Re6cG0lTM8H-Ywd_RmzjMAkckjQxyRzs29uLl91FNq5ffNczhgsNJgTuG_eaCH7b3Kq-dpgEEVuwtAurqPJUD81BM1dd2jaRoIEPCPrcykdNz_S_tUTouKDA_YSLz-Gqnn9vsb7l_D7RgoNcychgyctgduSOS8Vs1I_1UN2FzH6IlkmOLnrP-0KGL2FwhperOZdluF]--></g></svg>